<svg width="96" height="171" viewBox="0 0 96 171" fill="none" xmlns="http://www.w3.org/2000/svg">
<g clip-path="url(#clip0_3_59)">
<path d="M82.5625 171C81.1694 170.385 79.6342 169.975 78.4079 169.119C74.8897 166.663 73.7685 162.191 75.4859 158.289C77.089 154.651 80.9563 152.519 84.771 153.165C88.8051 153.851 91.7704 157.27 92.0638 161.582C92.3357 165.57 89.6391 169.354 85.6792 170.549C85.2498 170.679 84.8359 170.849 84.4127 171H82.5594H82.5625ZM82.4389 170.064C85.6884 170.361 88.1101 169.205 89.7966 166.756C91.7735 163.883 91.8631 160.779 90.1611 157.733C88.7155 155.142 86.3525 153.959 83.4397 153.773C82.5687 153.718 82.4327 154.243 82.4358 154.947C82.4451 159.929 82.4389 164.912 82.4389 170.064Z" fill="black"/>
<path d="M47.8775 0C51.4946 3.25567 54.9881 6.36308 58.426 9.53844C58.8029 9.88748 59.0098 10.5917 59.0191 11.1354C59.0716 14.4806 59.0284 17.829 59.0592 21.1742C59.0654 21.7086 59.1488 22.3387 59.433 22.765C62.5311 27.3983 69.9136 29.6779 75.1615 27.6732C79.6929 25.9404 82.1795 21.7549 81.5617 16.89C81.5184 16.5378 81.4628 16.1888 81.398 15.7255C85.9324 13.7671 90.4391 11.8211 95.2454 9.74539C94.0006 13.0443 92.8762 16.0498 91.7364 19.0491C89.3827 25.2423 86.9981 31.4262 84.6784 37.6348C84.3015 38.6418 83.8197 39.031 82.6953 39.0835C77.6574 39.3275 72.6256 39.7013 67.5907 40.0318C67.356 40.0472 67.1274 40.1121 66.8494 40.4797C74.5685 42.438 82.2845 44.3933 90.26 46.4165C88.7557 48.6219 87.3286 50.7162 86.0467 52.5973C81.988 50.8398 78.1516 48.9617 74.1638 47.51C68.9344 45.6041 63.5041 44.8412 57.9349 45.8265C53.8885 46.5431 50.5062 48.3965 47.9702 51.6985C41.7585 44.6713 33.9004 44.4273 25.6376 46.0273C19.8769 47.1424 14.5887 49.527 9.42415 52.5541C7.97238 50.4289 6.56694 48.3687 5.01633 46.0922C12.9578 44.0782 20.68 42.1168 28.4022 40.1584C28.396 40.0472 28.3898 39.936 28.3837 39.8217C26.7435 39.6858 25.1064 39.5252 23.4662 39.4171C19.7688 39.1731 16.0652 38.9847 12.3709 38.6881C11.8427 38.6449 11.0582 38.2279 10.8883 37.7893C7.25885 28.4609 3.70047 19.1047 0 9.40871C4.78158 11.469 9.27589 13.4026 13.7733 15.3393C13.7733 16.7633 13.6034 18.1626 13.8042 19.5093C14.5115 24.2878 18.0236 27.5249 22.8453 27.9883C27.9419 28.4794 32.1274 26.657 35.4757 22.8762C35.9298 22.3634 36.1831 21.5171 36.2139 20.8097C36.3622 17.4151 36.3807 14.0173 36.5012 10.6226C36.5197 10.1099 36.6618 9.42415 37.0109 9.12453C40.5631 6.08199 44.1678 3.10123 47.8806 0L47.8775 0ZM46.1231 21.3997C45.2365 21.6221 43.5191 21.8229 41.9932 22.4746C38.0642 24.1488 35.4726 27.0369 35.4016 31.4849C35.3336 35.7228 37.6379 38.7036 41.3507 40.4488C45.8759 42.577 50.3486 42.2403 54.4661 39.3059C59.6369 35.6209 59.9272 28.6091 55.1364 24.433C52.7888 22.3881 50.0058 21.4986 46.1231 21.3997Z" fill="black"/>
<path d="M75.9183 73.4534C78.2998 75.4766 80.6011 77.3608 82.8034 79.3531C83.2946 79.7979 83.6807 80.6227 83.7023 81.2868C83.9185 88.1286 83.8845 88.1224 80.1532 93.8307C77.9601 97.1883 75.8009 100.568 73.404 104.283C73.3576 103.459 73.3144 102.989 73.3113 102.523C73.2557 96.1906 73.1878 89.8584 73.1754 83.5262C73.1754 82.5934 72.9592 81.9323 72.0819 81.5524C71.8935 81.4721 71.702 81.3733 71.5537 81.2373C68.7676 78.6767 65.9135 78.5191 62.7752 80.7092C61.9134 81.3115 61.4871 81.7532 61.4933 82.8281C61.5705 93.1233 61.5334 103.422 61.6879 113.717C61.7188 115.756 61.1134 117.019 59.4608 118.14C56.8785 119.892 54.4414 121.862 51.7541 123.879C51.6738 123.283 51.5842 122.909 51.5811 122.536C51.4174 101.531 51.2691 80.5269 51.0869 59.5226C51.0807 58.6453 51.3402 58.1171 52.0784 57.6507C54.8182 55.9179 57.4994 54.0985 60.2454 52.3749C60.8199 52.0166 61.5643 51.7757 62.2377 51.7571C65.3266 51.6799 68.4185 51.6799 71.5074 51.7046C72.0974 51.7108 72.746 51.8313 73.2681 52.0969C76.567 53.7773 79.8257 55.5348 83.1247 57.209C83.8753 57.5889 84.1347 58.0306 84.1007 58.8739C84.0143 60.9311 84.1285 62.9976 83.9895 65.0486C83.9401 65.7683 83.5478 66.6301 83.0258 67.1212C80.7462 69.2649 78.3647 71.2943 75.9183 73.4534ZM61.4408 70.346C65.0949 68.3815 68.5359 66.5559 71.9398 64.6717C72.258 64.4957 72.5329 63.9644 72.5576 63.5813C72.6348 62.352 72.6503 61.1103 72.5453 59.884C72.5144 59.5349 72.0047 58.9542 71.7051 58.948C68.3228 58.8801 64.9405 58.9048 61.4408 58.9048V70.346Z" fill="black"/>
<path d="M44.5693 123.907C43.3029 122.974 42.1971 122.174 41.1098 121.353C39.5499 120.176 38.0858 118.841 36.424 117.837C34.8734 116.902 34.5768 115.715 34.5923 114.029C34.6942 103.635 34.6664 93.2377 34.7282 82.8436C34.7344 81.7872 34.3483 81.3115 33.4618 80.7092C30.4007 78.6335 27.6856 78.7076 24.7758 81.086C23.6762 81.988 23.0708 82.6737 23.077 84.1378C23.1017 90.2106 22.9905 96.2802 22.9318 102.353C22.9287 102.801 22.9318 103.249 22.6414 103.817C22.1349 103.091 21.6067 102.384 21.1279 101.642C18.4807 97.5374 15.8119 93.4446 13.2389 89.2932C12.7601 88.5209 12.5007 87.5016 12.4698 86.5873C12.3987 84.4838 11.9447 82.1023 12.7509 80.3416C13.5509 78.5933 15.6976 77.4597 17.2668 76.0697C18.2274 75.2203 19.2097 74.4017 20.3217 73.4503C18.0514 71.4487 15.8984 69.478 13.659 67.6062C12.6335 66.7475 12.0991 65.8332 12.164 64.4493C12.2536 62.5497 12.1115 60.6408 12.1516 58.738C12.1609 58.3148 12.3895 57.6569 12.7045 57.5148C16.1548 55.9488 19.6421 54.463 23.0152 52.9989C23.0152 55.8685 23.1079 58.6732 22.9719 61.4655C22.9102 62.701 23.1542 63.4208 24.2909 64.0324C27.3674 65.688 30.3729 67.4826 33.4092 69.2155C33.7984 69.4379 34.2062 69.6263 34.8301 69.9475V52.202C35.3552 52.4182 35.6827 52.5016 35.9576 52.6715C38.6819 54.3271 41.4218 55.958 44.0937 57.6971C44.5848 58.0152 45.0821 58.7782 45.0821 59.3342C44.9987 80.4837 44.8597 101.636 44.7238 122.786C44.7238 123.073 44.6466 123.363 44.5693 123.907Z" fill="black"/>
<path d="M9.46121 131.086H15.2806V139.185L15.7038 139.299C17.6189 136.982 19.636 134.74 21.409 132.321C22.4221 130.94 23.5496 130.829 25.162 131.163C23.7534 132.856 22.4932 134.474 21.1094 135.981C20.3279 136.834 20.2352 137.486 20.8499 138.514C23.1604 142.397 25.3596 146.348 27.7751 150.576C25.5295 150.576 23.5125 150.617 21.4985 150.533C21.1804 150.521 20.8066 149.996 20.5904 149.631C19.4167 147.636 18.2892 145.616 17.1402 143.608C16.8683 143.129 16.5718 142.663 16.059 141.81C14.7123 144.834 15.7996 147.698 15.2003 150.471H9.46121V131.083V131.086Z" fill="black"/>
<path d="M74.4233 150.938C73.3762 150.437 72.5885 150.061 71.5229 149.551C69.7715 150.722 67.4301 151.163 64.9621 150.814C59.5566 150.051 56.6221 146.19 57.0021 140.219C57.5519 131.533 65.2308 129.408 70.1329 131.357C71.9677 132.086 72.919 133.581 73.4719 135.351C73.5708 135.663 73.2557 136.275 72.9468 136.507C72.4711 136.865 71.8379 137.016 71.0348 137.359C70.9669 136.676 70.9174 136.099 70.8526 135.521C70.6487 133.671 69.5552 132.565 67.7977 132.417C66.0494 132.269 64.5729 133.152 64.1744 134.879C63.2478 138.888 63.2879 142.947 64.0694 146.972C64.3906 148.627 65.4934 149.251 67.1397 149.115C68.3073 149.02 68.9128 148.383 68.9869 147.243C69.0332 146.576 69.0178 145.906 69.0209 145.236C69.027 144.213 69.0209 143.191 69.0209 141.999H66.1328V140.145H74.4264V150.938H74.4233Z" fill="black"/>
<path d="M54.2499 150.579C52.8506 150.579 51.5193 150.647 50.2034 150.539C49.8081 150.505 49.3694 150.039 49.1007 149.662C46.5061 146.023 43.9454 142.36 41.0666 138.749V150.524H39.0959V131.222C41.9654 130.505 42.6203 130.749 44.2419 133.05C46.5555 136.331 48.8814 139.599 51.2104 142.87C51.4637 143.225 51.7571 143.549 52.2668 144.186V131.302C54.1387 130.758 54.3394 130.885 54.3394 132.54C54.3394 138.048 54.3394 143.558 54.3302 149.066C54.3302 149.517 54.2838 149.968 54.2468 150.583L54.2499 150.579Z" fill="black"/>
<path d="M76.8759 144.216C77.6635 144.053 78.4914 143.883 79.3748 143.697C79.3748 144.396 79.3995 144.948 79.3717 145.501C79.2883 147.089 79.7825 148.442 81.3424 148.986C83.1247 149.61 85.0181 149.829 86.6336 148.532C87.7518 147.633 87.4892 145.696 86.124 144.825C85.0954 144.167 83.9092 143.759 82.8127 143.203C81.6266 142.601 80.3817 142.07 79.313 141.294C77.2867 139.821 76.5855 137.693 77.0797 135.286C77.5369 133.059 79.14 131.799 81.2405 131.157C83.3625 130.508 85.5154 130.502 87.6251 131.169C90.0468 131.938 91.2113 133.745 91.0754 136.451C90.2754 136.599 89.4445 136.754 88.524 136.924C88.6229 135.08 88.6692 133.201 86.5657 132.667C85.222 132.327 83.7146 132.343 82.3339 132.556C81.7254 132.649 80.9161 133.566 80.8142 134.208C80.7153 134.842 81.2157 135.861 81.7717 136.241C82.8528 136.979 84.1656 137.378 85.3734 137.94C86.5811 138.502 87.8475 138.981 88.9657 139.691C91.1681 141.087 92.4747 143.074 92.0083 145.786C91.5202 148.618 89.5681 150.212 86.8776 150.601C84.9347 150.882 82.859 150.851 80.9316 150.49C77.7438 149.894 76.4033 147.645 76.8728 144.216H76.8759Z" fill="black"/>
<path d="M19.0213 168.035C20.748 168.742 22.4716 169.446 24.2013 170.154C22.9998 171.025 21.3194 170.33 16.0035 166.716V170.283H8.72916V153.529C10.3199 153.529 11.8427 153.48 13.3594 153.542C15.4104 153.625 17.4923 153.6 19.5001 153.965C23.0183 154.604 25.162 157.248 25.2176 160.612C25.2701 163.865 23.2191 166.45 19.8337 167.398C19.5896 167.466 19.3518 167.559 19.1109 167.642C19.08 167.772 19.0522 167.902 19.0213 168.032V168.035ZM15.9139 154.487C15.9139 157.999 15.8521 161.428 15.9479 164.85C15.9818 166.064 16.9178 166.734 18.1193 166.811C22.07 167.065 25.2454 163.179 24.2631 159.33C23.3766 155.861 20.6213 154.175 15.9139 154.487Z" fill="black"/>
<path d="M46.8366 170.314V153.508C50.6112 153.699 54.4414 152.983 58.1171 154.24C61.6107 155.435 63.5968 159.333 63.0655 163.404C62.6022 166.969 59.4886 170.049 55.7943 170.28C52.8784 170.463 49.9409 170.317 46.8366 170.317V170.314ZM54.185 154.385V169.514C59.1087 170.073 62.5589 165.944 62.4447 161.706C62.3273 157.292 58.667 154.02 54.185 154.385Z" fill="black"/>
<path d="M45.5485 170.351C42.8705 170.351 40.5013 170.41 38.1414 170.302C37.6534 170.28 37.017 169.724 36.7576 169.249C36.3035 168.412 35.7815 168.084 34.8209 168.127C33.0726 168.205 31.315 168.229 29.5729 168.115C28.3744 168.038 27.6176 168.368 27.1944 169.517C27.04 169.934 26.6724 170.271 26.4037 170.645C26.2183 170.53 26.0361 170.413 25.8508 170.299C29.1929 164.473 32.532 158.648 36.0101 152.584C39.2225 158.57 42.3176 164.331 45.5485 170.348V170.351ZM35.6796 167.262C34.5089 164.983 33.4556 162.935 32.2664 160.621C30.9567 162.96 29.8045 165.014 28.5443 167.262H35.6827H35.6796Z" fill="black"/>
<path d="M72.536 153.65V170.262H65.3667V153.65H72.536Z" fill="black"/>
<path d="M29.579 131.095H35.4355V150.496H29.579V131.095Z" fill="black"/>
<path d="M54.6761 35.9112H52.1371V31.4509C52.0043 31.4262 51.8684 31.3984 51.7355 31.3737C51.3618 32.5876 51.0374 33.817 50.5865 35.0031C50.4413 35.3861 49.9193 35.939 49.666 35.8927C49.2583 35.8186 48.7579 35.3769 48.5972 34.9722C48.0907 33.7058 47.7231 32.3868 47.0003 31.1204V35.9946C46.0613 35.4603 45.774 31.0555 46.2837 27.6516C48.6158 27.1018 48.7609 27.1821 49.4251 29.3999C49.6876 30.2771 49.9471 31.1575 50.5092 32.0934C50.8892 30.9134 51.3803 29.752 51.6212 28.5443C51.9239 27.0307 53.0143 27.4539 53.9132 27.4694C55.0159 27.491 54.6514 28.4022 54.6607 28.986C54.6978 31.2409 54.6761 33.4988 54.6761 35.9112Z" fill="black"/>
<path d="M39.3986 27.6392H45.1439C45.15 27.806 45.1562 27.9697 45.1593 28.1365C44.1585 28.2076 43.1577 28.2755 42.0643 28.3528V31.0092C42.9786 31.1204 43.8465 31.2254 44.7145 31.3304L44.7238 31.8339C43.8805 31.908 43.0342 31.9791 41.9685 32.0718V35.8927H39.3986V27.6392Z" fill="black"/>
</g>
<defs>
<clipPath id="clip0_3_59">
<rect width="95.2454" height="171" fill="white"/>
</clipPath>
</defs>
</svg>