<svg width="101" height="181" viewBox="0 0 101 181" fill="none" xmlns="http://www.w3.org/2000/svg">
<g clip-path="url(#clip0_173_25)">
<path d="M87.5508 181C86.0736 180.349 84.4456 179.915 83.1453 179.009C79.4145 176.41 78.2255 171.675 80.0466 167.546C81.7466 163.695 85.8475 161.439 89.8928 162.122C94.1706 162.848 97.3151 166.467 97.6262 171.031C97.9145 175.252 95.055 179.257 90.8558 180.523C90.4005 180.66 89.9616 180.84 89.5128 181H87.5475H87.5508ZM87.4198 180.009C90.8656 180.323 93.4336 179.1 95.222 176.508C97.3183 173.467 97.4133 170.181 95.6085 166.957C94.0756 164.214 91.5698 162.962 88.481 162.766C87.5574 162.707 87.4132 163.263 87.4165 164.008C87.4263 169.282 87.4198 174.556 87.4198 180.009Z" fill="white"/>
<path d="M50.7702 0C54.6058 3.44606 58.3104 6.73519 61.9561 10.0962C62.3557 10.4657 62.5751 11.2111 62.585 11.7866C62.6406 15.3275 62.5948 18.8716 62.6275 22.4125C62.6341 22.9781 62.7225 23.6451 63.0239 24.0963C66.3092 29.0005 74.1376 31.4134 79.7027 29.2915C84.5079 27.4573 87.1446 23.0272 86.4895 17.8777C86.4437 17.505 86.3847 17.1355 86.3159 16.6451C91.1244 14.5722 95.9033 12.5124 101 10.3153C99.68 13.8071 98.4877 16.9884 97.279 20.1631C94.7831 26.7184 92.2544 33.264 89.7945 39.8357C89.3949 40.9016 88.8839 41.3135 87.6916 41.3691C82.3493 41.6274 77.0135 42.023 71.6745 42.3728C71.4255 42.3892 71.1831 42.4578 70.8883 42.8469C79.0738 44.9198 87.256 46.9894 95.7133 49.1309C94.1182 51.4653 92.6049 53.6821 91.2456 55.6732C86.9416 53.8128 82.8734 51.825 78.6447 50.2883C73.0993 48.271 67.341 47.4635 61.4352 48.5064C57.1443 49.265 53.5577 51.2267 50.8685 54.7218C44.2815 47.2836 35.9486 47.0253 27.1866 48.7189C21.0778 49.8992 15.4702 52.4233 9.99355 55.6274C8.45406 53.378 6.96371 51.1972 5.31941 48.7876C13.7407 46.6559 21.9295 44.5798 30.1182 42.5069C30.1117 42.3892 30.1051 42.2715 30.0986 42.1505C28.3593 42.0066 26.6233 41.8366 24.884 41.7222C20.9632 41.4639 17.0359 41.2645 13.1184 40.9506C12.5583 40.9048 11.7263 40.4634 11.5461 39.9992C7.69742 30.1253 3.92405 20.2219 0 9.95892C5.07047 12.1397 9.83632 14.1864 14.6054 16.2364C14.6054 17.7436 14.4253 19.2247 14.6382 20.6502C15.3883 25.7081 19.1125 29.1346 24.2256 29.625C29.6302 30.1449 34.0685 28.2159 37.6191 24.214C38.1006 23.6712 38.3692 22.7754 38.4019 22.0267C38.5592 18.4335 38.5788 14.837 38.7066 11.2438C38.7262 10.7011 38.8769 9.97527 39.247 9.65813C43.0138 6.43766 46.8364 3.28259 50.7735 0L50.7702 0ZM48.9097 22.6512C47.9697 22.8866 46.1485 23.0991 44.5304 23.7889C40.364 25.561 37.6158 28.618 37.5405 33.3261C37.4684 37.8119 39.9119 40.9669 43.8491 42.8142C48.6477 45.0669 53.3906 44.7105 57.7569 41.6045C63.24 37.704 63.5479 30.2822 58.4676 25.8618C55.9783 23.6974 53.027 22.7558 48.9097 22.6512V22.6512Z" fill="white"/>
<path d="M80.5052 77.7489C83.0306 79.8905 85.4709 81.8849 87.8063 83.9937C88.3271 84.4645 88.7365 85.3375 88.7595 86.0404C88.9888 93.2824 88.9527 93.2758 84.9959 99.3179C82.6703 102.872 80.3807 106.449 77.8389 110.382C77.7898 109.509 77.744 109.012 77.7407 108.518C77.6817 101.816 77.6097 95.1133 77.5966 88.4108C77.5966 87.4234 77.3673 86.7237 76.437 86.3216C76.2372 86.2366 76.0341 86.1319 75.8769 85.9881C72.9224 83.2777 69.8959 83.1109 66.568 85.429C65.6541 86.0666 65.2021 86.5341 65.2086 87.6719C65.2905 98.5692 65.2512 109.47 65.415 120.367C65.4477 122.525 64.8057 123.862 63.0533 125.049C60.315 126.903 57.7307 128.989 54.881 131.124C54.7958 130.493 54.7008 130.097 54.6976 129.701C54.5239 107.469 54.3667 85.2361 54.1735 63.0034C54.1669 62.0749 54.4421 61.5158 55.2249 61.0221C58.1303 59.1879 60.9734 57.2622 63.8853 55.4378C64.4946 55.0585 65.284 54.8035 65.998 54.7839C69.2735 54.7022 72.5523 54.7022 75.8278 54.7283C76.4534 54.7349 77.1413 54.8624 77.6948 55.1435C81.1931 56.9222 84.6487 58.7825 88.1469 60.5546C88.9429 60.9567 89.218 61.4243 89.182 62.3168C89.0903 64.4943 89.2115 66.6816 89.0641 68.8526C89.0117 69.6144 88.5957 70.5266 88.0421 71.0464C85.6248 73.3155 83.0994 75.4635 80.5052 77.7489V77.7489ZM65.1529 74.4598C69.0279 72.3804 72.6768 70.4481 76.2864 68.4537C76.6237 68.2674 76.9153 67.705 76.9415 67.2996C77.0233 65.9983 77.0397 64.684 76.9284 63.386C76.8956 63.0165 76.3551 62.4019 76.0374 62.3953C72.4508 62.3234 68.8641 62.3495 65.1529 62.3495V74.4598V74.4598Z" fill="white"/>
<path d="M47.2622 131.153C45.9192 130.166 44.7466 129.319 43.5936 128.449C41.9395 127.204 40.3869 125.791 38.6247 124.728C36.9804 123.738 36.6659 122.482 36.6823 120.697C36.7904 109.695 36.7609 98.6901 36.8264 87.6882C36.833 86.5701 36.4236 86.0666 35.4835 85.429C32.2375 83.2319 29.3583 83.3104 26.2728 85.8279C25.1067 86.7826 24.4647 87.5084 24.4713 89.0582C24.4975 95.486 24.3795 101.911 24.3173 108.338C24.314 108.813 24.3173 109.287 24.0094 109.888C23.4722 109.12 22.9121 108.371 22.4044 107.586C19.5973 103.241 16.7673 98.9092 14.0388 94.515C13.5311 93.6976 13.256 92.6186 13.2232 91.6509C13.1479 89.4243 12.6664 86.9035 13.5213 85.0399C14.3696 83.1894 16.6461 81.9895 18.3101 80.5182C19.3287 79.6191 20.3703 78.7527 21.5495 77.7456C19.142 75.627 16.859 73.5411 14.4843 71.5597C13.3968 70.6508 12.8301 69.683 12.8989 68.2183C12.9939 66.2076 12.8432 64.187 12.8858 62.173C12.8957 61.7251 13.138 61.0287 13.4721 60.8783C17.1309 59.2206 20.8289 57.648 24.4058 56.0982C24.4058 59.1356 24.504 62.1043 24.3599 65.06C24.2944 66.3678 24.5532 67.1296 25.7585 67.7769C29.0209 69.5294 32.208 71.429 35.4278 73.2632C35.8405 73.4986 36.2729 73.698 36.9345 74.038V55.2547C37.4914 55.4836 37.8386 55.5718 38.1301 55.7517C41.0191 57.5041 43.9245 59.2304 46.7578 61.0712C47.2786 61.4079 47.8059 62.2155 47.8059 62.804C47.7175 85.1903 47.5701 107.58 47.426 129.966C47.426 130.27 47.3441 130.578 47.2622 131.153V131.153Z" fill="white"/>
<path d="M10.0328 138.751H16.2039V147.324L16.6526 147.445C18.6834 144.993 20.8223 142.619 22.7025 140.059C23.7768 138.598 24.9724 138.48 26.6822 138.833C25.1886 140.625 23.8522 142.338 22.3847 143.934C21.556 144.836 21.4578 145.526 22.1096 146.615C24.5597 150.724 26.8918 154.906 29.4533 159.382C27.072 159.382 24.9331 159.424 22.7975 159.336C22.4601 159.323 22.0637 158.767 21.8345 158.382C20.5898 156.269 19.3942 154.131 18.1757 152.006C17.8875 151.499 17.573 151.006 17.0293 150.103C15.6012 153.304 16.7542 156.335 16.1187 159.271H10.0328V138.748V138.751Z" fill="white"/>
<path d="M78.9199 159.765C77.8095 159.235 76.9742 158.836 75.8442 158.297C73.987 159.536 71.5041 160.003 68.887 159.634C63.1549 158.826 60.0432 154.739 60.446 148.419C61.0291 139.225 69.172 136.976 74.3702 139.039C76.3158 139.811 77.3247 141.393 77.911 143.267C78.0158 143.597 77.6817 144.244 77.3542 144.489C76.8497 144.869 76.1783 145.029 75.3266 145.392C75.2546 144.669 75.2022 144.058 75.1334 143.446C74.9172 141.488 73.7577 140.318 71.8939 140.161C70.04 140.004 68.4743 140.939 68.0518 142.766C67.0691 147.01 67.1117 151.306 67.9404 155.566C68.281 157.319 69.4504 157.979 71.1962 157.836C72.4344 157.734 73.0764 157.061 73.155 155.854C73.2041 155.148 73.1877 154.439 73.191 153.729C73.1976 152.647 73.191 151.565 73.191 150.303H70.1284V148.341H78.9231V159.765H78.9199Z" fill="white"/>
<path d="M57.5276 159.385C56.0438 159.385 54.632 159.457 53.2367 159.343C52.8174 159.307 52.3523 158.813 52.0673 158.414C49.3159 154.563 46.6005 150.685 43.5477 146.863V159.326H41.458V138.895C44.5009 138.137 45.1953 138.395 46.915 140.831C49.3683 144.303 51.8348 147.762 54.3045 151.225C54.5731 151.601 54.8842 151.944 55.4247 152.617V138.98C57.4097 138.405 57.6226 138.539 57.6226 140.291C57.6226 146.121 57.6226 151.954 57.6127 157.783C57.6127 158.261 57.5636 158.738 57.5243 159.389L57.5276 159.385Z" fill="white"/>
<path d="M81.5206 152.65C82.3559 152.477 83.2337 152.297 84.1705 152.101C84.1705 152.84 84.1967 153.425 84.1672 154.01C84.0788 155.691 84.6029 157.123 86.257 157.698C88.1469 158.359 90.1548 158.591 91.8679 157.218C93.0536 156.266 92.7752 154.216 91.3275 153.294C90.2367 152.598 88.9789 152.166 87.8161 151.578C86.5583 150.94 85.2383 150.378 84.105 149.557C81.9562 147.998 81.2127 145.745 81.7368 143.198C82.2216 140.841 83.9216 139.507 86.1489 138.827C88.3992 138.14 90.6822 138.133 92.9193 138.84C95.4873 139.654 96.7222 141.566 96.5781 144.431C95.7297 144.587 94.8486 144.751 93.8725 144.931C93.9773 142.979 94.0265 140.991 91.7958 140.425C90.371 140.066 88.7726 140.082 87.3084 140.308C86.6631 140.406 85.805 141.377 85.6969 142.057C85.5921 142.727 86.1227 143.806 86.7123 144.208C87.8587 144.99 89.2508 145.411 90.5315 146.006C91.8122 146.602 93.1552 147.108 94.3409 147.86C96.6763 149.338 98.0619 151.44 97.5673 154.311C97.0497 157.309 94.9796 158.996 92.1267 159.408C90.0664 159.706 87.8653 159.673 85.8213 159.29C82.441 158.659 81.0195 156.279 81.5173 152.65H81.5206Z" fill="white"/>
<path d="M20.1705 177.861C22.0015 178.61 23.8293 179.355 25.6635 180.104C24.3894 181.026 22.6075 180.291 16.9704 176.465V180.241H9.25656V162.508C10.9434 162.508 12.5583 162.455 14.1665 162.521C16.3415 162.609 18.5492 162.583 20.6782 162.969C24.409 163.645 26.6822 166.444 26.7412 170.005C26.7969 173.447 24.6219 176.184 21.032 177.188C20.7732 177.26 20.521 177.358 20.2655 177.446C20.2328 177.583 20.2033 177.721 20.1705 177.858V177.861ZM16.8754 163.521C16.8754 167.239 16.8099 170.868 16.9114 174.49C16.9474 175.775 17.9399 176.485 19.2141 176.567C23.4034 176.835 26.7707 172.722 25.729 168.648C24.789 164.976 21.8672 163.191 16.8754 163.521V163.521Z" fill="white"/>
<path d="M49.6664 180.274V162.485C53.669 162.687 57.7307 161.929 61.6285 163.26C65.3331 164.525 67.4392 168.651 66.8759 172.96C66.3845 176.733 63.0828 179.993 59.1653 180.238C56.0733 180.431 52.9583 180.277 49.6664 180.277V180.274ZM57.4588 163.413V179.427C62.6799 180.019 66.3387 175.648 66.2175 171.162C66.093 166.49 62.2115 163.028 57.4588 163.413Z" fill="white"/>
<path d="M48.3005 180.313C45.4606 180.313 42.9483 180.376 40.4459 180.261C39.9283 180.238 39.2536 179.65 38.9784 179.146C38.4969 178.26 37.9434 177.914 36.9247 177.959C35.0708 178.041 33.207 178.067 31.3596 177.946C30.0887 177.865 29.2862 178.214 28.8375 179.431C28.6737 179.872 28.2839 180.228 27.999 180.624C27.8024 180.503 27.6092 180.379 27.4126 180.258C30.9567 174.092 34.4975 167.925 38.1858 161.507C41.5923 167.844 44.8743 173.941 48.3005 180.31V180.313ZM37.8353 177.044C36.5939 174.631 35.4769 172.463 34.2159 170.014C32.827 172.489 31.6053 174.664 30.2689 177.044H37.8386H37.8353Z" fill="white"/>
<path d="M76.9185 162.635V180.219H69.3161V162.635H76.9185V162.635Z" fill="white"/>
<path d="M31.3662 138.761H37.5765V159.297H31.3662V138.761V138.761Z" fill="white"/>
<path d="M57.9796 38.0113H55.2871V33.2901C55.1463 33.264 55.0022 33.2345 54.8613 33.2084C54.465 34.4933 54.1211 35.7946 53.6428 37.0501C53.4889 37.4555 52.9353 38.0407 52.6667 37.9917C52.2344 37.9132 51.7037 37.4457 51.5334 37.0174C50.9962 35.6769 50.6064 34.2808 49.84 32.9403V38.0996C48.8442 37.5339 48.5396 32.8716 49.0801 29.2686C51.5531 28.6867 51.707 28.7717 52.4112 31.1192C52.6897 32.0477 52.9648 32.9795 53.5609 33.9702C53.9638 32.7212 54.4846 31.4919 54.7401 30.2135C55.0611 28.6115 56.2174 29.0594 57.1705 29.0757C58.3399 29.0986 57.9534 30.0631 57.9632 30.6811C58.0025 33.0678 57.9796 35.4578 57.9796 38.0113V38.0113Z" fill="white"/>
<path d="M41.779 29.2556H47.8714C47.878 29.4321 47.8845 29.6054 47.8878 29.7819C46.8265 29.8571 45.7653 29.9291 44.6057 30.0108V32.8226C45.5753 32.9403 46.4957 33.0515 47.4161 33.1626L47.4259 33.6955C46.5317 33.774 45.6343 33.8492 44.5042 33.9473V37.9917H41.779V29.2556V29.2556Z" fill="white"/>
</g>
<defs>
<clipPath id="clip0_173_25">
<rect width="101" height="181" fill="white"/>
</clipPath>
</defs>
</svg>
