<svg width="744" height="1333" viewBox="0 0 744 1333" fill="none" xmlns="http://www.w3.org/2000/svg">
<g clip-path="url(#clip0_173_25)">
<path d="M644.929 1333C634.047 1328.21 622.055 1325.01 612.476 1318.34C584.994 1299.19 576.235 1264.33 589.65 1233.92C602.173 1205.55 632.382 1188.94 662.181 1193.97C693.692 1199.31 716.855 1225.97 719.148 1259.58C721.271 1290.67 700.207 1320.17 669.274 1329.48C665.92 1330.5 662.687 1331.82 659.382 1333H644.905H644.929ZM643.964 1325.7C669.347 1328.02 688.263 1319.01 701.437 1299.92C716.88 1277.52 717.579 1253.32 704.285 1229.58C692.993 1209.38 674.534 1200.16 651.781 1198.71C644.977 1198.28 643.915 1202.37 643.939 1207.86C644.012 1246.7 643.964 1285.54 643.964 1325.7Z" fill="white"/>
<path d="M373.991 0C402.245 25.379 429.534 49.6022 456.389 74.3552C459.333 77.0761 460.949 82.5661 461.022 86.8039C461.432 112.881 461.094 138.983 461.335 165.06C461.384 169.226 462.035 174.138 464.255 177.46C488.456 213.579 546.123 231.349 587.117 215.722C622.513 202.213 641.937 169.587 637.111 131.663C636.773 128.918 636.339 126.197 635.832 122.585C671.253 107.319 706.456 92.1494 744 75.9685C734.276 101.685 725.493 125.113 716.59 148.494C698.204 196.772 679.577 244.977 661.457 293.376C658.513 301.225 654.749 304.259 645.966 304.669C606.613 306.571 567.308 309.484 527.978 312.061C526.144 312.181 524.359 312.687 522.187 315.552C582.484 330.818 642.757 346.06 705.057 361.832C693.306 379.024 682.159 395.349 672.146 410.013C640.441 396.312 610.473 381.672 579.324 370.355C538.474 355.499 496.056 349.551 452.553 357.232C420.944 362.819 394.524 377.266 374.714 403.006C326.192 348.227 264.809 346.325 200.266 358.798C155.266 367.49 113.959 386.079 73.6158 409.676C62.2755 393.11 51.297 377.049 39.1846 359.303C101.219 343.604 161.54 328.314 221.861 313.048C221.813 312.181 221.764 311.314 221.716 310.423C208.904 309.364 196.116 308.112 183.304 307.269C154.422 305.367 125.492 303.898 96.6343 301.586C92.5084 301.249 86.3798 297.999 85.0527 294.58C56.7018 221.862 28.9059 148.927 0 73.3439C37.3508 89.4044 72.4577 104.478 107.589 119.575C107.589 130.675 106.262 141.583 107.83 152.081C113.355 189.331 140.789 214.566 178.454 218.178C218.266 222.006 250.96 207.8 277.115 178.327C280.662 174.33 282.64 167.733 282.882 162.219C284.04 135.756 284.185 109.269 285.126 82.8068C285.27 78.8098 286.38 73.4643 289.107 71.1287C316.854 47.4111 345.012 24.1751 374.015 0L373.991 0ZM360.286 166.818C353.361 168.551 339.945 170.116 328.026 175.197C297.335 188.248 277.091 210.761 276.536 245.435C276.005 278.471 294.005 301.707 323.007 315.311C358.355 331.902 393.293 329.277 425.457 306.402C465.848 277.676 468.116 223.017 430.692 190.463C412.355 174.523 390.615 167.588 360.286 166.818V166.818Z" fill="white"/>
<path d="M593.028 572.593C611.631 588.364 629.607 603.052 646.811 618.583C650.647 622.051 653.663 628.48 653.832 633.657C655.521 686.991 655.256 686.943 626.108 731.44C608.977 757.614 592.111 783.956 573.388 812.923C573.026 806.494 572.688 802.834 572.664 799.198C572.23 749.837 571.699 700.475 571.602 651.114C571.602 643.842 569.913 638.689 563.061 635.727C561.589 635.101 560.093 634.331 558.935 633.271C537.171 613.31 514.876 612.082 490.362 629.154C483.63 633.849 480.3 637.292 480.349 645.672C480.952 725.926 480.662 806.205 481.869 886.459C482.11 902.351 477.381 912.2 464.472 920.94C444.301 934.593 425.263 949.955 404.272 965.679C403.644 961.031 402.945 958.118 402.92 955.204C401.642 791.469 400.483 627.733 399.06 463.998C399.012 457.159 401.038 453.042 406.805 449.406C428.207 435.898 449.151 421.715 470.601 408.279C475.089 405.486 480.904 403.608 486.164 403.464C510.292 402.862 534.445 402.862 558.573 403.054C563.181 403.102 568.248 404.042 572.326 406.112C598.095 419.211 623.551 432.912 649.32 445.963C655.183 448.924 657.21 452.368 656.945 458.941C656.269 474.978 657.162 491.086 656.076 507.075C655.69 512.685 652.626 519.403 648.548 523.231C630.741 539.942 612.138 555.762 593.028 572.593V572.593ZM479.938 548.37C508.482 533.056 535.361 518.825 561.951 504.137C564.436 502.764 566.584 498.623 566.777 495.637C567.38 486.054 567.5 476.374 566.68 466.815C566.439 464.094 562.458 459.567 560.117 459.519C533.697 458.989 507.276 459.182 479.938 459.182V548.37V548.37Z" fill="white"/>
<path d="M348.149 965.895C338.256 958.624 329.618 952.387 321.125 945.982C308.94 936.808 297.504 926.406 284.522 918.581C272.41 911.285 270.094 902.039 270.214 888.892C271.011 807.866 270.793 726.817 271.276 645.792C271.324 637.557 268.308 633.849 261.383 629.154C237.472 612.973 216.263 613.551 193.534 632.092C184.944 639.123 180.215 644.468 180.264 655.881C180.457 703.22 179.588 750.535 179.129 797.874C179.105 801.365 179.129 804.857 176.861 809.287C172.904 803.629 168.778 798.115 165.038 792.336C144.36 760.335 123.513 728.431 103.414 696.069C99.6746 690.049 97.6478 682.103 97.4065 674.976C96.8515 658.578 93.3047 640.013 99.6022 626.289C105.851 612.66 122.621 603.823 134.878 592.988C142.382 586.366 150.055 579.985 158.741 572.569C141.007 556.966 124.189 541.604 106.696 527.012C98.6853 520.318 94.5111 513.191 95.0178 502.403C95.7175 487.595 94.6076 472.714 94.9213 457.882C94.9937 454.583 96.7792 449.454 99.2403 448.346C126.192 436.139 153.433 424.557 179.781 413.143C179.781 435.513 180.505 457.376 179.443 479.143C178.961 488.775 180.867 494.385 189.746 499.153C213.778 512.059 237.255 526.049 260.973 539.557C264.013 541.291 267.198 542.759 272.072 545.263V406.931C276.174 408.617 278.732 409.267 280.879 410.591C302.16 423.497 323.562 436.211 344.433 449.767C348.27 452.247 352.154 458.195 352.154 462.529C351.503 627.396 350.417 792.288 349.356 957.155C349.356 959.394 348.752 961.658 348.149 965.895V965.895Z" fill="white"/>
<path d="M73.9053 1021.85H119.363V1084.99L122.669 1085.88C137.628 1067.82 153.384 1050.34 167.234 1031.49C175.148 1020.72 183.955 1019.86 196.55 1022.46C185.548 1035.65 175.703 1048.27 164.894 1060.02C158.789 1066.66 158.065 1071.75 162.867 1079.76C180.915 1110.03 198.094 1140.83 216.963 1173.79C199.421 1173.79 183.665 1174.1 167.934 1173.45C165.449 1173.36 162.529 1169.26 160.84 1166.42C151.671 1150.87 142.864 1135.12 133.889 1119.47C131.765 1115.74 129.449 1112.1 125.444 1105.46C114.924 1129.03 123.417 1151.35 118.736 1172.97H73.9053V1021.83V1021.85Z" fill="white"/>
<path d="M581.35 1176.61C573.171 1172.71 567.018 1169.77 558.694 1165.8C545.013 1174.92 526.724 1178.37 507.445 1175.65C465.22 1169.7 442.298 1139.6 445.266 1093.06C449.561 1025.35 509.544 1008.78 547.836 1023.97C562.168 1029.66 569.6 1041.31 573.919 1055.11C574.691 1057.54 572.23 1062.31 569.817 1064.11C566.101 1066.91 561.155 1068.09 554.881 1070.76C554.351 1065.44 553.965 1060.93 553.458 1056.43C551.865 1042.01 543.324 1033.39 529.595 1032.23C515.938 1031.08 504.405 1037.96 501.292 1051.42C494.054 1082.68 494.367 1114.32 500.472 1145.69C502.981 1158.6 511.595 1163.46 524.455 1162.4C533.576 1161.66 538.305 1156.7 538.884 1147.81C539.246 1142.61 539.126 1137.38 539.15 1132.16C539.198 1124.19 539.15 1116.22 539.15 1106.92H516.59V1092.48H581.374V1176.61H581.35Z" fill="white"/>
<path d="M423.768 1173.82C412.837 1173.82 402.438 1174.35 392.159 1173.5C389.071 1173.24 385.645 1169.6 383.546 1166.66C363.278 1138.3 343.275 1109.74 320.787 1081.59V1173.38H305.394V1022.91C327.809 1017.33 332.924 1019.23 345.592 1037.17C363.664 1062.74 381.832 1088.22 400.025 1113.71C402.004 1116.48 404.296 1119.01 408.277 1123.97V1023.54C422.899 1019.3 424.467 1020.29 424.467 1033.2C424.467 1076.13 424.467 1119.08 424.395 1162.02C424.395 1165.53 424.033 1169.05 423.743 1173.84L423.768 1173.82Z" fill="white"/>
<path d="M600.508 1124.21C606.661 1122.94 613.127 1121.61 620.028 1120.17C620.028 1125.61 620.221 1129.92 620.004 1134.23C619.353 1146.61 623.213 1157.15 635.398 1161.39C649.32 1166.25 664.111 1167.96 676.73 1157.85C685.464 1150.84 683.414 1135.75 672.749 1128.96C664.714 1123.83 655.449 1120.65 646.883 1116.32C637.618 1111.62 627.894 1107.48 619.546 1101.43C603.717 1089.95 598.24 1073.36 602.101 1054.6C605.672 1037.24 618.194 1027.42 634.602 1022.41C651.178 1017.35 667.995 1017.3 684.475 1022.5C703.392 1028.5 712.488 1042.59 711.427 1063.68C705.177 1064.83 698.687 1066.04 691.497 1067.36C692.269 1052.99 692.631 1038.35 676.199 1034.18C665.703 1031.53 653.929 1031.65 643.143 1033.32C638.39 1034.04 632.068 1041.19 631.272 1046.2C630.5 1051.13 634.409 1059.08 638.752 1062.04C647.197 1067.8 657.451 1070.9 666.886 1075.29C676.32 1079.67 686.212 1083.4 694.947 1088.94C712.15 1099.82 722.357 1115.3 718.713 1136.45C714.901 1158.53 699.652 1170.95 678.636 1173.98C663.459 1176.18 647.245 1175.93 632.189 1173.12C607.288 1168.47 596.817 1150.94 600.484 1124.21H600.508Z" fill="white"/>
<path d="M148.583 1309.88C162.071 1315.4 175.534 1320.89 189.046 1326.4C179.66 1333.19 166.534 1327.77 125.009 1299.6V1327.41H68.187V1196.81C80.6132 1196.81 92.5085 1196.43 104.356 1196.91C120.377 1197.56 136.639 1197.36 152.323 1200.21C179.805 1205.19 196.55 1225.8 196.985 1252.02C197.395 1277.38 181.373 1297.53 154.929 1304.92C153.023 1305.45 151.165 1306.18 149.283 1306.83C149.041 1307.84 148.824 1308.85 148.583 1309.86V1309.88ZM124.31 1204.28C124.31 1231.65 123.827 1258.38 124.575 1285.06C124.841 1294.52 132.151 1299.75 141.537 1300.35C172.398 1302.32 197.202 1272.03 189.529 1242.03C182.604 1214.99 161.081 1201.84 124.31 1204.28V1204.28Z" fill="white"/>
<path d="M365.859 1327.65V1196.64C395.344 1198.13 425.264 1192.55 453.976 1202.35C481.266 1211.67 496.78 1242.05 492.63 1273.79C489.011 1301.58 464.689 1325.58 435.832 1327.39C413.055 1328.81 390.108 1327.68 365.859 1327.68V1327.65ZM423.261 1203.48V1321.42C461.722 1325.78 488.673 1293.58 487.78 1260.55C486.863 1226.14 458.271 1200.64 423.261 1203.48Z" fill="white"/>
<path d="M355.798 1327.94C334.879 1327.94 316.372 1328.4 297.938 1327.56C294.126 1327.39 289.155 1323.06 287.128 1319.35C283.581 1312.82 279.504 1310.27 272 1310.61C258.343 1311.21 244.614 1311.4 231.006 1310.51C221.644 1309.91 215.732 1312.48 212.427 1321.44C211.22 1324.69 208.349 1327.32 206.25 1330.23C204.802 1329.34 203.379 1328.43 201.931 1327.53C228.038 1282.12 254.121 1236.71 281.289 1189.44C306.383 1236.11 330.56 1281.01 355.798 1327.92V1327.94ZM278.708 1303.86C269.563 1286.09 261.335 1270.13 252.046 1252.1C241.815 1270.32 232.815 1286.34 222.971 1303.86H278.732H278.708Z" fill="white"/>
<path d="M566.608 1197.75V1327.25H510.606V1197.75H566.608V1197.75Z" fill="white"/>
<path d="M231.054 1021.93H276.801V1173.17H231.054V1021.93V1021.93Z" fill="white"/>
<path d="M427.097 279.94H407.264V245.17C406.226 244.977 405.164 244.761 404.127 244.568C401.207 254.031 398.674 263.614 395.151 272.86C394.017 275.846 389.939 280.156 387.961 279.795C384.776 279.217 380.867 275.774 379.612 272.62C375.655 262.747 372.784 252.466 367.138 242.593V280.59C359.803 276.424 357.559 242.088 361.54 215.553C379.757 211.267 380.891 211.893 386.079 229.182C388.13 236.02 390.157 242.882 394.548 250.178C397.516 240.98 401.352 231.927 403.234 222.512C405.599 210.713 414.116 214.012 421.137 214.132C429.751 214.301 426.904 221.404 426.976 225.955C427.266 243.533 427.097 261.134 427.097 279.94V279.94Z" fill="white"/>
<path d="M307.758 215.457H352.637C352.685 216.757 352.733 218.033 352.758 219.333C344.94 219.887 337.122 220.417 328.581 221.019V241.727C335.723 242.593 342.503 243.412 349.283 244.231L349.355 248.156C342.768 248.734 336.157 249.287 327.833 250.01V279.795H307.758V215.457V215.457Z" fill="white"/>
</g>
<defs>
<clipPath id="clip0_173_25">
<rect width="744" height="1333" fill="white"/>
</clipPath>
</defs>
</svg>
